<svg xmlns="http://www.w3.org/2000/svg" viewBox="0 0 128 128" width="128" height="128">
  <defs>
    <linearGradient id="moon-grad" x1="0" y1="0" x2="1" y2="1">
      <stop offset="0%" stop-color="#FFDF00"/>
      <stop offset="100%" stop-color="#FF9900"/>
    </linearGradient>
    <filter id="glow-moon" x="-30%" y="-30%" width="160%" height="160%">
      <feDropShadow dx="0" dy="4" stdDeviation="8" flood-color="#FFB700" flood-opacity="0.6"/>
    </filter>
  </defs>
  <circle cx="64" cy="64" r="54" fill="#141126" stroke="#9E7BFF" stroke-width="2" opacity="0.9"/>
  <polygon points="36,36 38,42 44,44 38,46 36,52 34,46 28,44 34,42" fill="#FFF275"/>
  <polygon points="86,30 87,34 91,35 87,36 86,40 85,36 81,35 85,34" fill="#00FFFF"/>
  <polygon points="38,82 39,85 42,86 39,87 38,90 37,87 34,86 37,85" fill="#FF70A6"/>
  <path d="M 76 28 C 50 32 38 56 46 80 C 54 102 78 106 94 96 C 72 96 58 76 66 54 C 70 42 78 34 88 30 C 84 29 80 28 76 28 Z" fill="url(#moon-grad)" filter="url(#glow-moon)"/>
  <polygon points="78,58 92,58 84,72 96,72 74,96 80,78 68,78" fill="#00FFFF" opacity="0.95"/>
</svg>